<?xml version="1.0" encoding="utf-8"?>
<!-- Generator: Adobe Illustrator 24.0.1, SVG Export Plug-In . SVG Version: 6.00 Build 0)  -->
<svg version="1.1" id="Layer_1" xmlns="http://www.w3.org/2000/svg" xmlns:xlink="http://www.w3.org/1999/xlink" x="0px" y="0px"
	 viewBox="0 0 25 25" style="enable-background:new 0 0 25 25;" xml:space="preserve">
<g>
	<path d="M5.2,23.3c-0.1,0-0.2,0-0.3-0.1c-0.3-0.1-0.4-0.4-0.4-0.7V2.4c0-0.4,0.3-0.7,0.7-0.7h14.5c0.4,0,0.7,0.3,0.7,0.7v20.3
		c0,0.3-0.2,0.5-0.4,0.6c-0.1,0-0.2,0.1-0.3,0.1c-0.2,0-0.4-0.1-0.5-0.2l-6.8-6.8l-6.8,6.8C5.6,23.3,5.4,23.3,5.2,23.3z M6,20.9
		l6.1-6.1c0.1-0.1,0.3-0.2,0.5-0.2s0.4,0.1,0.5,0.2l6.1,6.1V3.1H6V20.9z"/>
</g>
</svg>
