<?xml version="1.0" encoding="utf-8"?>
<!-- Generator: Adobe Illustrator 24.0.1, SVG Export Plug-In . SVG Version: 6.00 Build 0)  -->
<svg version="1.1" id="Layer_1" xmlns="http://www.w3.org/2000/svg" xmlns:xlink="http://www.w3.org/1999/xlink" x="0px" y="0px"
	 viewBox="0 0 25 25" style="enable-background:new 0 0 25 25;" xml:space="preserve">
<g>
	<path d="M5.4,23.5c-1.3,0-2.3-1-2.3-2.3V3.7c0-1.2,1-2.2,2.2-2.2h14.3c1.3,0,2.3,1,2.3,2.3V18c0,1.3-1,2.3-2.3,2.3h-0.8v0.8
		c0,1.3-1,2.3-2.3,2.3H5.4z M5.2,2.8c-0.5,0-0.9,0.3-0.9,1v17.4c0,0.6,0.5,1.1,1.1,1.1h11c0.6,0,1.1-0.5,1.1-1.1v-0.8h-9
		c-1.3,0-2.3-1-2.3-2.3V3.7C6.2,3.1,5.7,2.8,5.2,2.8z M7.3,2.9c0.1,0.3,0.2,0.5,0.2,0.8V18c0,0.6,0.5,1.1,1.1,1.1h11
		c0.6,0,1.1-0.5,1.1-1.1V3.9c0-0.6-0.5-1.1-1.1-1.1H7.2L7.3,2.9z M11.3,15.8c-0.4,0-0.6-0.3-0.6-0.6c0-0.3,0.2-0.6,0.6-0.6h6.2
		c0.4,0,0.6,0.3,0.6,0.6c0,0.3-0.2,0.6-0.6,0.6H11.3z M11.3,11.5c-0.4,0-0.6-0.3-0.6-0.6c0-0.3,0.2-0.6,0.6-0.6h6.2
		c0.4,0,0.6,0.3,0.6,0.6c0,0.3-0.2,0.6-0.6,0.6H11.3z M11.3,7c-0.4,0-0.6-0.3-0.6-0.6c0-0.3,0.2-0.6,0.6-0.6h6.2
		c0.4,0,0.6,0.3,0.6,0.6C18.1,6.7,18,7,17.5,7H11.3z"/>
</g>
</svg>
