<?xml version="1.0" encoding="utf-8"?>
<!-- Generator: Adobe Illustrator 24.0.1, SVG Export Plug-In . SVG Version: 6.00 Build 0)  -->
<svg version="1.1" id="Layer_1" xmlns="http://www.w3.org/2000/svg" xmlns:xlink="http://www.w3.org/1999/xlink" x="0px" y="0px"
	 viewBox="0 0 25 25" style="enable-background:new 0 0 25 25;" xml:space="preserve">
<style type="text/css">
	.st0{fill-rule:evenodd;clip-rule:evenodd;}
</style>
<g>
	<path class="st0" d="M5,22.3c-0.9,0-1.7-0.8-1.7-1.7V4.4C3.3,3.4,4,2.7,5,2.7h7.5c0.9,0,1.7,0.8,1.7,1.7v2.5c0,0.3-0.3,0.6-0.6,0.6
		c-0.3,0-0.6-0.3-0.6-0.6V4.4c0-0.2-0.2-0.4-0.4-0.4H5c-0.2,0-0.4,0.2-0.4,0.4v16.2c0,0.2,0.2,0.4,0.4,0.4h7.5
		c0.2,0,0.4-0.2,0.4-0.4v-2.5c0-0.3,0.3-0.6,0.6-0.6c0.3,0,0.6,0.3,0.6,0.6v2.5c0,0.9-0.8,1.7-1.7,1.7H5z M16.8,17.4
		c-0.3,0-0.5-0.2-0.6-0.4c-0.1-0.2,0-0.5,0.2-0.7l2.8-2.8c0.1-0.1,0.1-0.2,0.1-0.3c0,0-0.1-0.1-0.3-0.1h-7.8c-0.3,0-0.6-0.3-0.6-0.6
		s0.3-0.6,0.6-0.6H19c0.2,0,0.2-0.1,0.3-0.1c0,0,0-0.1-0.1-0.3l-2.8-2.8c-0.2-0.2-0.2-0.4-0.2-0.7c0.1-0.2,0.4-0.4,0.6-0.4
		c0.2,0,0.3,0.1,0.4,0.2l4.2,4.2c0.2,0.2,0.2,0.4,0.2,0.6c0,0.2-0.1,0.4-0.2,0.6l-4.2,4.2C17.1,17.4,17,17.4,16.8,17.4z"/>
</g>
</svg>
