<?xml version="1.0" encoding="utf-8"?>
<!-- Generator: Adobe Illustrator 24.0.1, SVG Export Plug-In . SVG Version: 6.00 Build 0)  -->
<svg version="1.1" id="Layer_1" xmlns="http://www.w3.org/2000/svg" xmlns:xlink="http://www.w3.org/1999/xlink" x="0px" y="0px"
	 viewBox="0 0 25 25" style="enable-background:new 0 0 25 25;" xml:space="preserve">
<path d="M24.1,16.1c0-0.3-0.1-0.5-0.3-0.7L22,13.6c-0.2-0.2-0.5-0.3-0.7-0.3c0,0,0,0,0,0c-0.3,0-0.5,0.1-0.7,0.3L18.1,16
	c-1-1-2.3-1.7-3.7-2.2c2-1.2,3.4-3.4,3.4-5.9c0-3.7-3-6.8-6.8-6.8S4.3,4.2,4.3,8c0,2.5,1.4,4.7,3.4,5.9c-4,1.4-6.9,5.2-6.9,9.7h1.4
	c0-4.9,4-8.9,8.8-8.9c2.3,0,4.4,0.9,5.9,2.3l-2.6,2.6c-0.1,0.1-0.2,0.2-0.2,0.4l-0.6,2.9c-0.1,0.2,0,0.5,0.2,0.7
	c0.1,0.1,0.3,0.2,0.5,0.2c0.1,0,0.1,0,0.2,0l2.9-0.6c0.2,0,0.3-0.1,0.4-0.2l1.8-1.8c0.2,0.8,0.4,1.6,0.4,2.5h1.4
	c0-1.3-0.2-2.5-0.7-3.7l3-3C24,16.7,24.1,16.4,24.1,16.1z M11.1,13.3c-2.9,0-5.3-2.4-5.3-5.3s2.4-5.3,5.3-5.3S16.4,5,16.4,8
	S14,13.3,11.1,13.3z M15.6,20.5l3.8-3.8l1.2,1.2l-3.8,3.8l-1.6,0.4L15.6,20.5z M21.7,16.9l-1.2-1.2l0.7-0.7l1.2,1.2L21.7,16.9z"/>
</svg>
